# xmcd CD database file
#
# Track frame offsets:
#	150
#	47626
#	96598
#	115210
#	138178
#	165706
#	179217
#	213378
#	247696
#	272896
#	283601
#	311017
#
# Disc length: 4371 seconds
#
# Revision: 0
# Processed by: cddbd v1.5.2PL0 Copyright (c) Steve Scherf et al.
# Submitted via: CDex 1.51
#
DISCID=b411110c
DTITLE=Heikki Sarmanto - New Hope Jazz Mass
DYEAR=1979
DGENRE=Jazz
TTITLE0=Heikki Sarmanto - Duke and Trane
TTITLE1=Heikki Sarmanto - Glory to God in the Highest
TTITLE2=Heikki Sarmanto - We are God's Holy Temple
TTITLE3=Heikki Sarmanto - Hymn for the Day
TTITLE4=Heikki Sarmanto - We believe in one God
TTITLE5=Heikki Sarmanto - Intercessions
TTITLE6=Heikki Sarmanto - Northern dance
TTITLE7=Heikki Sarmanto - Gracious Father
TTITLE8=Heikki Sarmanto - Holy, Holy, Holy
TTITLE9=Heikki Sarmanto - Through Him
TTITLE10=Heikki Sarmanto - Have Mercy on Us
TTITLE11=Heikki Sarmanto - Thank the Lord
EXTD=YEAR: 1979
EXTT0=
EXTT1=
EXTT2=
EXTT3=
EXTT4=
EXTT5=
EXTT6=
EXTT7=
EXTT8=
EXTT9=
EXTT10=
EXTT11=
PLAYORDER=
